{"title":"The Wolverine(2013)MP-4[DaScubaDude]","uid":12358683,"size":1254208442,"categoryP":"video","categoryS":"movies","magnet":"?xt=urn:btih:716c93b35868960b93dee46c553cadb02b513c75&amp;dn=The+Wolverine%282013%29MP-4%5BDaScubaDude%5D&amp;tr=udp%3A%2F%2Ftracker.openbittorrent.com%3A80&amp;tr=udp%3A%2F%2Fopen.demonii.com%3A1337&amp;tr=udp%3A%2F%2Ftracker.coppersurfer.tk%3A6969&amp;tr=udp%3A%2F%2Fexodus.desync.com%3A6969","seeders":0,"leechers":0,"uploader":"dascuba","files":1,"time":1441505468,"description":"The Wolverine (2013)\nPG-13  |  126 min  |  Action, Adventure, Sci-Fi  |  26 July 2013 (USA)\n6.7 Your rating:   -/10   Ratings: 6.7/10 from 289,351 users   Metascore: 60/100 \nReviews: 522 user | 426 critic | 43 from Metacritic.com\nWhen Wolverine is summoned to Japan by an old acquaintance, he is embroiled in a conflict that forces him to confront his own demons.\n\nDirector: James Mangold\nWriters: Mark Bomback (screenplay), Scott Frank (screenplay)\nStars: Hugh Jackman, Will Yun Lee, Tao Okamoto \n\nGeneral\nComplete name                          : C:The WolverineTHE_WOLVERINE_Title2.mp4\nFormat                                   : MPEG-4\nFormat profile                           : Base Media\nCodec ID                                 : isom\nFile size                                : 1.17 GiB\nDuration                                 : 2h 6mn\nOverall bit rate                         : 1 327 Kbps\nMovie name                               : THE_WOLVERINE\nGenre                                    : Action\nWriting application                      : Lavf54.6.100\n\nVideo\nID                                       : 1\nFormat                                   : AVC\nFormat/Info                              : Advanced Video Codec\nFormat profile                           : Baseline@L3\nFormat settings, CABAC                   : No\nFormat settings, ReFrames                : 6 frames\nCodec ID                                 : avc1\nCodec ID/Info                            : Advanced Video Coding\nDuration                                 : 2h 6mn\nBit rate                                 : 1 192 Kbps\nWidth                                    : 720 pixels\nHeight                                   : 404 pixels\nDisplay aspect ratio                     : 16:9\nFrame rate mode                          : Constant\nFrame rate                               : 29.970 fps\nColor space                              : YUV\nChroma subsampling                       : 4:2:0\nBit depth                                : 8 bits\nScan type                                : Progressive\nBits/(Pixel*Frame)                       : 0.137\nStream size                              : 1.05 GiB (90%)\n\nAudio\nID                                       : 2\nFormat                                   : AAC\nFormat/Info                              : Advanced Audio Codec\nFormat profile                           : LC\nCodec ID                                 : 40\nDuration                                 : 2h 6mn\nBit rate mode                            : Constant\nBit rate                                 : 128 Kbps\nChannel(s)                               : 2 channels\nChannel positions                        : Front: L R\nSampling rate                            : 44.1 KHz\nCompression mode                         : Lossy\nStream size                              : 115 MiB (10%)","torrent":{"xt":"urn:btih:716c93b35868960b93dee46c553cadb02b513c75","amp;dn":"The+Wolverine%282013%29MP-4%5BDaScubaDude%5D","amp;tr":["udp%3A%2F%2Ftracker.openbittorrent.com%3A80","udp%3A%2F%2Fopen.demonii.com%3A1337","udp%3A%2F%2Ftracker.coppersurfer.tk%3A6969","udp%3A%2F%2Fexodus.desync.com%3A6969"],"infoHash":"716c93b35868960b93dee46c553cadb02b513c75","infoHashBuffer":{"type":"Buffer","data":[113,108,147,179,88,104,150,11,147,222,228,108,85,60,173,176,43,81,60,117]},"announce":[],"urlList":[]}}